#N canvas 110 25 1710 1227 12;
#X floatatom 1269 764 5 0 0 0 - - - 0;
#X obj 608 353 vsl 19 162 0 1 0 0 empty empty Y2 0 -9 0 12 #bbbbbb #000000 #000000 0 1;
#X obj 323 353 vsl 19 162 0 1 0 0 empty empty Y0 0 -9 0 12 #bbbbbb #000000 #000000 0 1;
#X obj 428 353 vsl 19 162 0 1 0 0 empty empty X1 0 -9 0 12 #dfdfdf #000000 #000000 0 1;
#X obj 461 353 vsl 19 162 0 1 0 0 empty empty Y1 0 -9 0 12 #bbbbbb #000000 #000000 0 1;
#X obj 573 353 vsl 19 162 0 1 0 0 empty empty X2 0 -9 0 12 #dfdfdf #000000 #000000 0 1;
#X listbox 1389 766 18 0 0 0 - - - 0;
#X floatatom 1269 685 5 0 0 0 - - - 0;
#X obj 686 353 vsl 19 162 0 1 0 0 empty empty Y3 0 -9 0 12 #bbbbbb #000000 #000000 0 1;
#N canvas 0 22 450 278 (subpatch) 0;
#X array envelope 100 float 5;
#A 0 0 0 0 0 0 0 0 0 0 0 0 0 0 0 0 0 0 0 0 0 0 0 0 0 0 0 0 0 0 0 0 0 0 0 0 0 0 0 0 0 0 0 0 0 0 0 0 0 0 0 0 0 0 0 0 0 0 0 0 0 0 0 0 0 0 0 0 0 0 0 0 0 0 0 0 0 0 0 0 0 0 0 0 0 0 0 0 0 0 0 0 0 0 0 0 0 0 0 0 0;
#X coords 0 1 99 0 378 160 1 0 0;
#X restore 818 103 graph;
#X obj 1389 805 array set envelope;
#X obj 1269 724 bezier4, f 20;
#X obj 1239 104 t f b;
#X obj 1233 306 bng 19 250 50 0 empty empty empty 0 -10 0 12 #fcfcfc #000000 #000000;
#X obj 1239 144 sel 0 1 2 3 4 5 6 7;
#X msg 1339 392 1;
#X msg 1372 392 1;
#X msg 1482 392 1;
#X msg 1517 392 1;
#X msg 1596 392 1;
#X msg 1233 392 0;
#X text 1101 632 Total envelope points \; ---------------------> \; (Click to set) \;;
#X text 130 418 Move slider to change the position of control points \; Y0 : First point \; X1 \, Y1 : Second point \; X2 \, Y2 : Third point \; Y3 : Fourth point \;, f 25;
#X obj 1269 305 bng 19 250 50 0 empty empty empty 0 -10 0 12 #fcfcfc #000000 #000000;
#X msg 1380 420 1;
#X msg 1525 420 1;
#X obj 1302 305 bng 19 250 50 0 empty empty empty 0 -10 0 12 #fcfcfc #000000 #000000;
#X msg 1614 447 1;
#X msg 1251 447 0;
#X obj 1334 304 bng 19 250 50 0 empty empty empty 0 -10 0 12 #fcfcfc #000000 #000000;
#X obj 1367 305 bng 19 250 50 0 empty empty empty 0 -10 0 12 #fcfcfc #000000 #000000;
#X msg 1409 504 1;
#X msg 1554 504 1;
#X msg 1633 504 1;
#X msg 1270 504 0;
#X obj 1399 304 bng 19 250 50 0 empty empty empty 0 -10 0 12 #fcfcfc #000000 #000000;
#X msg 1384 532 1;
#X msg 1417 532 1;
#X msg 1527 532 1;
#X msg 1562 532 1;
#X obj 1431 304 bng 19 250 50 0 empty empty empty 0 -10 0 12 #fcfcfc #000000 #000000;
#X msg 1241 420 1;
#X msg 1604 420 0;
#X obj 1192 589 bng 19 250 50 0 empty empty empty 0 -10 0 12 #fcfcfc #000000 #000000;
#X msg 1347 420 0;
#X msg 1490 420 0;
#X obj 291 359 bng 19 250 50 0 empty empty empty 0 -10 0 12 #fcfcfc #000000 #000000;
#X obj 290 163 vradio 19 1 0 8 empty empty empty 0 -10 0 12 #fcfcfc #000000 #000000 0;
#X msg 1357 447 1;
#X msg 1390 447 0;
#X msg 1500 447 1;
#X msg 1535 447 0;
#X msg 1261 475 1;
#X msg 1367 475 0;
#X msg 1400 475 0;
#X msg 1510 475 0;
#X msg 1545 475 0;
#X msg 1624 475 0;
#X msg 1278 532 1;
#X msg 1641 532 0;
#X msg 1376 504 0;
#X msg 1519 504 0;
#X text 940 283 Click to clear envelope;
#X obj 1313 805 outlet;
#X msg 818 336 0;
#X msg 874 336 0;
#X msg 906 336 0;
#X msg 950 337 0;
#X msg 985 337 0;
#X msg 1026 337 0;
#X msg 818 275 \; envelope const 0 \$0;
#X obj 291 390 bng 19 250 50 0 empty empty empty 0 -10 0 12 #fcfcfc #000000 #000000;
#X text 125 386 Click to clear sliders;
#X text 132 359 Click to set envelope;
#X obj 1461 304 bng 19 250 50 0 empty empty empty 0 -10 0 12 #fcfcfc #000000 #000000;
#X text 127 152 PRESET LIST : \; 0 : Custom slider \; 1 : Linear increase \; 2 : Linear decrease \; 3 : Exp increase \; 4 : Exp decrease \; 5 : Log increase \; 6 : Log decrease \; 7 : Flat 0.5;
#X msg 1297 586 0.5;
#X msg 1403 586 0.5;
#X msg 1436 586 0.5;
#X msg 1546 586 0.5;
#X msg 1581 586 0.5;
#X msg 1660 586 0.5;
#X msg 1286 561 0.5;
#X msg 1392 561 0.5;
#X msg 1425 561 0.5;
#X msg 1535 561 0.5;
#X msg 1570 561 0.5;
#X msg 1649 561 0.5;
#X msg 1269 645 127;
#X connect 1 0 11 6;
#X connect 2 0 11 2;
#X connect 3 0 11 3;
#X connect 4 0 11 4;
#X connect 5 0 11 5;
#X connect 7 0 11 1;
#X connect 8 0 11 7;
#X connect 11 0 0 0;
#X connect 11 1 6 0;
#X connect 11 1 63 0;
#X connect 12 0 14 0;
#X connect 13 0 20 0;
#X connect 13 0 15 0;
#X connect 13 0 16 0;
#X connect 13 0 17 0;
#X connect 13 0 18 0;
#X connect 13 0 19 0;
#X connect 13 0 43 0;
#X connect 14 0 46 0;
#X connect 14 1 13 0;
#X connect 14 2 23 0;
#X connect 14 3 26 0;
#X connect 14 4 29 0;
#X connect 14 5 30 0;
#X connect 14 6 35 0;
#X connect 14 7 40 0;
#X connect 14 8 74 0;
#X connect 15 0 3 0;
#X connect 16 0 4 0;
#X connect 17 0 5 0;
#X connect 18 0 1 0;
#X connect 19 0 8 0;
#X connect 20 0 2 0;
#X connect 23 0 41 0;
#X connect 23 0 44 0;
#X connect 23 0 24 0;
#X connect 23 0 45 0;
#X connect 23 0 25 0;
#X connect 23 0 42 0;
#X connect 23 0 43 0;
#X connect 24 0 4 0;
#X connect 25 0 1 0;
#X connect 26 0 28 0;
#X connect 26 0 48 0;
#X connect 26 0 49 0;
#X connect 26 0 50 0;
#X connect 26 0 51 0;
#X connect 26 0 27 0;
#X connect 26 0 43 0;
#X connect 27 0 8 0;
#X connect 28 0 2 0;
#X connect 29 0 52 0;
#X connect 29 0 53 0;
#X connect 29 0 54 0;
#X connect 29 0 55 0;
#X connect 29 0 56 0;
#X connect 29 0 57 0;
#X connect 29 0 43 0;
#X connect 30 0 34 0;
#X connect 30 0 60 0;
#X connect 30 0 31 0;
#X connect 30 0 61 0;
#X connect 30 0 32 0;
#X connect 30 0 33 0;
#X connect 30 0 43 0;
#X connect 31 0 4 0;
#X connect 32 0 1 0;
#X connect 33 0 8 0;
#X connect 34 0 2 0;
#X connect 35 0 58 0;
#X connect 35 0 36 0;
#X connect 35 0 37 0;
#X connect 35 0 38 0;
#X connect 35 0 39 0;
#X connect 35 0 59 0;
#X connect 35 0 43 0;
#X connect 36 0 3 0;
#X connect 37 0 4 0;
#X connect 38 0 5 0;
#X connect 39 0 1 0;
#X connect 40 0 82 0;
#X connect 40 0 83 0;
#X connect 40 0 84 0;
#X connect 40 0 85 0;
#X connect 40 0 86 0;
#X connect 40 0 87 0;
#X connect 40 0 43 0;
#X connect 41 0 2 0;
#X connect 42 0 8 0;
#X connect 43 0 88 0;
#X connect 43 0 11 0;
#X connect 44 0 3 0;
#X connect 45 0 5 0;
#X connect 46 0 88 0;
#X connect 46 0 11 0;
#X connect 46 0 2 0;
#X connect 46 0 3 0;
#X connect 46 0 4 0;
#X connect 46 0 5 0;
#X connect 46 0 1 0;
#X connect 46 0 8 0;
#X connect 47 0 12 0;
#X connect 48 0 3 0;
#X connect 49 0 4 0;
#X connect 50 0 5 0;
#X connect 51 0 1 0;
#X connect 52 0 2 0;
#X connect 53 0 3 0;
#X connect 54 0 4 0;
#X connect 55 0 5 0;
#X connect 56 0 1 0;
#X connect 57 0 8 0;
#X connect 58 0 2 0;
#X connect 59 0 8 0;
#X connect 60 0 3 0;
#X connect 61 0 5 0;
#X connect 64 0 2 0;
#X connect 65 0 3 0;
#X connect 66 0 4 0;
#X connect 67 0 5 0;
#X connect 68 0 1 0;
#X connect 69 0 8 0;
#X connect 71 0 64 0;
#X connect 71 0 65 0;
#X connect 71 0 66 0;
#X connect 71 0 67 0;
#X connect 71 0 68 0;
#X connect 71 0 69 0;
#X connect 74 0 76 0;
#X connect 74 0 77 0;
#X connect 74 0 78 0;
#X connect 74 0 79 0;
#X connect 74 0 80 0;
#X connect 74 0 81 0;
#X connect 74 0 43 0;
#X connect 76 0 2 0;
#X connect 77 0 3 0;
#X connect 78 0 4 0;
#X connect 79 0 5 0;
#X connect 80 0 1 0;
#X connect 81 0 8 0;
#X connect 82 0 2 0;
#X connect 83 0 3 0;
#X connect 84 0 4 0;
#X connect 85 0 5 0;
#X connect 86 0 1 0;
#X connect 87 0 8 0;
#X connect 88 0 7 0;
#X coords 0 -1 1 1 650 450 1 100 100;
