#N canvas 881 152 1113 933 12;
#X floatatom 370 15 5 0 0 0 - bpmval - 0;
#X obj 505 56 *;
#X floatatom 505 96 5 0 0 0 - - - 0;
#X floatatom 742 190 5 0 0 0 - midinum - 0;
#X msg 504 130 tempo \$1 permin;
#X obj 501 255 bng 19 250 50 0 empty empty empty 0 -10 0 12 #fcfcfc #000000 #000000;
#X obj 502 186 metro;
#X obj 500 341 + 1;
#X floatatom 209 200 5 0 0 0 - - arrayindex 0;
#X obj 534 254 f 1;
#X obj 575 253 + 1;
#X obj 500 313 mod;
#X obj 855 223 vu 19 200 \$0-vu1 empty -1 -10 0 12 #404040 #000000 1 0;
#X obj 855 106 adc~;
#X obj 854 160 env~;
#X obj 854 191 - 90;
#X obj 925 192 dac~;
#X floatatom 923 101 5 0 0 0 - - - 0;
#X obj 892 143 *~;
#X msg 923 72 1;
#X obj 923 46 loadbang;
#X obj 209 168 bng 19 250 50 0 empty empty empty 0 -10 0 12 #fcfcfc #000000 #000000;
#X obj 812 450 >=;
#X floatatom 804 409 5 0 0 0 - triglev - 0;
#X obj 812 503 select 1;
#X floatatom 209 227 5 0 0 0 - - vumeter_in 0;
#X obj 744 259 outlet;
#X obj 500 377 outlet;
#X text 117 198 Array index \; \; VU meter IN;
#X obj 57 84 vradio 19 1 0 4 empty empty empty 0 -10 0 12 #fcfcfc #000000 #000000 0;
#X obj 57 222 tgl 19 0 empty empty empty 0 -10 0 12 #fcfcfc #000000 #000000 0 1;
#X obj 116 397 tgl 19 0 empty empty empty 0 -10 0 12 #fcfcfc #000000 #000000 0 1;
#X obj 565 827 print;
#X obj 185 168 bng 19 250 50 0 empty empty empty 0 -10 0 12 #fcfcfc #000000 #000000;
#X text 99 547 set array index to 0;
#X floatatom 57 550 5 0 0 0 - - - 0;
#X floatatom 228 683 5 0 0 0 - numrepeat - 0;
#X obj 97 671 + 1;
#X floatatom 259 52 5 0 0 0 - - trigtype 0;
#X obj 56 672 f 1;
#X obj 381 592 bng 19 250 50 0 empty empty empty 0 -10 0 12 #fcfcfc #000000 #000000;
#X obj 381 568 sel \$1;
#X obj 812 477 * 1;
#X obj 85 716 expr if($f1 == $f2 \, 0 \, 1);
#X floatatom 164 603 5 0 0 0 - - - 0;
#X obj 491 698 threshold~ -20 1 1 1;
#X text 606 767 change to trigger count(once) \; set toggle \;;
#X obj 491 763 f 0;
#X obj 546 740 + 1;
#X text 79 87 Trigger BPM \; Trigger once \; Trigger VU meter \; Trigger count;
#X obj 495 864 expr if($f1 > 0 \, 1 \, 0);
#X connect 0 0 1 0;
#X connect 1 0 2 0;
#X connect 2 0 4 0;
#X connect 3 0 11 1;
#X connect 3 0 1 1;
#X connect 3 0 41 1;
#X connect 4 0 6 0;
#X connect 6 0 5 0;
#X connect 6 0 9 0;
#X connect 7 0 8 0;
#X connect 7 0 27 0;
#X connect 7 0 41 0;
#X connect 9 0 10 0;
#X connect 9 0 11 0;
#X connect 10 0 9 1;
#X connect 11 0 7 0;
#X connect 12 0 22 0;
#X connect 12 0 45 0;
#X connect 13 0 14 0;
#X connect 13 0 18 0;
#X connect 14 0 15 0;
#X connect 15 0 12 0;
#X connect 15 0 25 0;
#X connect 15 0 26 0;
#X connect 17 0 18 1;
#X connect 18 0 16 0;
#X connect 18 0 16 1;
#X connect 19 0 17 0;
#X connect 20 0 19 0;
#X connect 22 0 42 0;
#X connect 23 0 22 1;
#X connect 29 0 33 0;
#X connect 29 0 38 0;
#X connect 29 0 44 0;
#X connect 30 0 33 0;
#X connect 30 0 31 0;
#X connect 31 0 6 0;
#X connect 33 0 35 0;
#X connect 35 0 9 1;
#X connect 36 0 43 1;
#X connect 37 0 39 1;
#X connect 39 0 37 0;
#X connect 39 0 43 0;
#X connect 40 0 39 0;
#X connect 41 0 40 0;
#X connect 42 0 24 0;
#X connect 43 0 30 0;
#X connect 44 0 39 1;
#X connect 45 0 21 0;
#X connect 45 0 47 0;
#X connect 47 0 32 0;
#X connect 47 0 48 0;
#X connect 47 0 50 0;
#X connect 48 0 47 1;
#X connect 50 0 29 0;
#X connect 50 0 30 0;
#X coords 0 -1 1 1 200 200 1 50 50;
